<svg width="85" height="85" viewBox="0 0 85 85" fill="none" xmlns="http://www.w3.org/2000/svg">
<path d="M81.4516 25.4738C79.1777 20.2788 75.9339 15.6526 71.8106 11.7245C71.2781 11.2173 70.4359 11.2376 69.9288 11.7702C69.4218 12.3024 69.4422 13.1448 69.9744 13.6516C77.9472 21.247 82.3381 31.4923 82.3381 42.5C82.3381 64.4669 64.4669 82.3383 42.4998 82.3383C20.5328 82.3383 2.66173 64.4669 2.66173 42.5C2.66173 20.5331 20.5331 2.66173 42.5 2.66173C50.5245 2.66173 58.2599 5.03675 64.8693 9.52963C65.4771 9.94284 66.3048 9.78496 66.7182 9.17734C67.1314 8.56939 66.9735 7.74164 66.3657 7.32843C59.3131 2.53423 51.0606 0 42.5 0C31.1479 0 20.4752 4.42066 12.448 12.448C4.42083 20.4752 0 31.1479 0 42.5C0 53.8521 4.42083 64.5248 12.448 72.552C20.4752 80.5793 31.1479 85 42.5 85C53.8521 85 64.5248 80.5793 72.552 72.552C80.5792 64.5248 85 53.8521 85 42.5C85 36.5812 83.806 30.8527 81.4516 25.4738Z" fill="#7C8081"/>
<g clip-path="url(#clip0)">
<path d="M38.4301 38.4302C34.955 37.4661 31.3849 37.2511 27.8189 37.7908L23.4703 38.4493C23.0028 38.5201 22.6814 38.9564 22.7522 39.4239C22.8165 39.8479 23.1813 40.1519 23.5974 40.1519C23.6401 40.1519 23.6832 40.1487 23.7267 40.1422L28.0753 39.4837C31.4011 38.9803 34.731 39.1808 37.9724 40.0801C38.4279 40.2063 38.8997 39.9396 39.026 39.4841C39.1525 39.0284 38.8856 38.5567 38.4301 38.4302Z" fill="#7C8081"/>
<path d="M23.5973 45.494C23.6399 45.494 23.6831 45.4908 23.7266 45.4843L28.0751 44.8258C30.7924 44.4144 33.5369 44.4762 36.233 45.0095C36.6969 45.1012 37.1471 44.7996 37.2389 44.3359C37.3307 43.8721 37.029 43.4217 36.5653 43.33C33.675 42.7584 30.7323 42.6919 27.8189 43.1331L23.4703 43.7915C23.0028 43.8623 22.6814 44.2986 22.7522 44.7661C22.8163 45.19 23.1812 45.494 23.5973 45.494Z" fill="#7C8081"/>
<path d="M38.3934 49.1147C34.9184 48.1507 31.3485 47.9354 27.7823 48.4754L23.4337 49.1338C22.9663 49.2046 22.6448 49.641 22.7156 50.1083C22.7798 50.5324 23.1447 50.8363 23.5607 50.8363C23.6034 50.8363 23.6466 50.8331 23.6901 50.8266L28.0386 50.1682C31.3644 49.6644 34.6943 49.8651 37.9357 50.7644C38.3911 50.8906 38.8629 50.624 38.9893 50.1684C39.1157 49.7127 38.8489 49.241 38.3934 49.1147Z" fill="#7C8081"/>
<path d="M62.7079 27.7342L58.3593 27.0757C54.7935 26.5359 51.2234 26.7508 47.7482 27.715C47.2927 27.8414 47.0259 28.3132 47.1522 28.7687C47.2786 29.2242 47.7498 29.4914 48.2058 29.3647C51.4469 28.4655 54.7769 28.2649 58.1028 28.7685L62.4514 29.4269C62.4949 29.4336 62.538 29.4366 62.5807 29.4366C62.9969 29.4366 63.3619 29.1326 63.4259 28.7087C63.4969 28.2413 63.1753 27.805 62.7079 27.7342Z" fill="#7C8081"/>
<path d="M47.9767 34.7376C48.0523 34.7376 48.1294 34.7275 48.206 34.7062C51.4473 33.8071 54.7771 33.6064 58.103 34.11L59.3623 34.3006C59.8291 34.3711 60.266 34.0498 60.3368 33.5823C60.4076 33.115 60.086 32.6786 59.6186 32.6079L58.3594 32.4172C54.7936 31.8775 51.2235 32.0923 47.7483 33.0565C47.2928 33.1829 47.0259 33.6547 47.1522 34.1102C47.2574 34.4893 47.6016 34.7376 47.9767 34.7376Z" fill="#7C8081"/>
<path d="M58.3596 43.1222C54.7937 42.5822 51.2237 42.7973 47.7485 43.7614C47.293 43.8878 47.0261 44.3596 47.1525 44.8151C47.2576 45.1942 47.6018 45.4425 47.9769 45.4425C48.0525 45.4425 48.1296 45.4324 48.2062 45.4111C51.4473 44.5119 54.7773 44.3112 58.1032 44.8149L59.3625 45.0055C59.8293 45.0757 60.2662 44.7548 60.337 44.2873C60.4077 43.8199 60.0862 43.3835 59.6188 43.3128L58.3596 43.1222Z" fill="#7C8081"/>
<path d="M48.1329 40.0476C51.3741 39.1483 54.704 38.9477 58.03 39.4513L62.3785 40.1097C62.422 40.1163 62.4652 40.1194 62.5078 40.1194C62.924 40.1194 63.289 39.8153 63.353 39.3914C63.4238 38.9241 63.1023 38.4877 62.6349 38.417L58.2863 37.7585C54.7206 37.2185 51.1504 37.4337 47.6752 38.3979C47.2197 38.5242 46.9529 38.9961 47.0792 39.4516C47.2056 39.9071 47.6768 40.174 48.1329 40.0476Z" fill="#7C8081"/>
<path d="M62.6714 49.1015L58.3228 48.443C54.757 47.9032 51.1869 48.1182 47.7116 49.0824C47.2561 49.2088 46.9892 49.6806 47.1156 50.1361C47.2418 50.5916 47.713 50.8587 48.1692 50.7321C51.4104 49.8329 54.7404 49.6322 58.0663 50.1358L62.4149 50.7942C62.4584 50.8008 62.5016 50.8039 62.5442 50.8039C62.9604 50.8039 63.3253 50.4999 63.3894 50.076C63.4603 49.6086 63.1389 49.1722 62.6714 49.1015Z" fill="#7C8081"/>
<path d="M69.9592 25.3575H68.2414V23.1364C68.2414 22.7132 67.9321 22.3534 67.5136 22.29L60.3421 21.2041C54.5393 20.3256 48.7297 20.6755 43.0744 22.2444L43.0617 22.248L43.0492 22.2444C37.3939 20.6755 31.5843 20.3255 25.7813 21.2041L18.6099 22.29C18.1913 22.3533 17.882 22.7131 17.882 23.1364V25.3575H16.1033C14.8402 25.3575 13.8125 26.3852 13.8125 27.6483V29.9289C13.8125 30.4016 14.1957 30.7849 14.6685 30.7849C15.1414 30.7849 15.5245 30.4016 15.5245 29.9289V27.6483C15.5245 27.3292 15.7842 27.0695 16.1033 27.0695H17.8819V57.1519C17.8819 57.4011 17.9904 57.6379 18.1792 57.8006C18.3679 57.9631 18.6181 58.0354 18.8646 57.9986L26.1321 56.9105C31.7474 56.0696 37.365 56.4279 42.8284 57.9757C42.9809 58.0188 43.1425 58.0188 43.295 57.9757C48.7581 56.428 54.3754 56.0696 59.9911 56.9105L67.2586 57.9986C67.3008 58.0049 67.3432 58.0081 67.3853 58.0081C67.5889 58.0081 67.7875 57.9354 67.944 57.8007C68.1328 57.638 68.2413 57.4012 68.2413 57.1521V27.0695H69.9591C70.2782 27.0695 70.5378 27.3292 70.5378 27.6483V59.9122C70.5378 60.2313 70.2782 60.491 69.9591 60.491H57.26C56.7871 60.491 56.404 60.8742 56.404 61.347C56.404 61.8198 56.7871 62.203 57.26 62.203H69.9592C71.2223 62.203 72.25 61.1753 72.25 59.9122V27.6483C72.25 26.3852 71.2223 25.3575 69.9592 25.3575ZM32.828 22.4533C34.0141 22.4781 35.1974 22.5566 36.3769 22.6888V32.6954L35.3108 31.6839C35.0165 31.405 34.5671 31.3704 34.2339 31.6014L32.828 32.576V22.4533ZM32.0423 54.7555C29.9923 54.7555 27.9352 54.9093 25.8787 55.2172L19.594 56.1582V26.2223C19.594 26.2193 19.5942 26.2164 19.5942 26.2135C19.5942 26.2107 19.594 26.2076 19.594 26.2047V23.8725L26.0377 22.8968C27.7314 22.6404 29.4256 22.4931 31.116 22.4548V26.8254C29.9885 26.8451 28.8582 26.9398 27.7457 27.1081L23.3972 27.7666C22.9298 27.8373 22.6083 28.2737 22.679 28.741C22.7433 29.1651 23.1082 29.469 23.5242 29.469C23.5669 29.469 23.61 29.4658 23.6535 29.4593L28.0021 28.8009C29.0302 28.6452 30.0738 28.5571 31.116 28.5377V32.1675C29.9885 32.1871 28.8582 32.2819 27.7457 32.4503L23.3972 33.1088C22.9298 33.1796 22.6083 33.6159 22.679 34.0833C22.7433 34.5073 23.1082 34.8112 23.5242 34.8112C23.5669 34.8112 23.61 34.808 23.6535 34.8015L28.0021 34.1431C29.0302 33.9874 30.0738 33.8991 31.116 33.8797V34.2108C31.116 34.5293 31.2928 34.8214 31.575 34.9692C31.8572 35.1169 32.1981 35.0957 32.4597 34.9144L34.6374 33.4049L36.6438 35.3084C36.8061 35.4624 37.0179 35.5434 37.2332 35.5434C37.3471 35.5434 37.462 35.5207 37.5709 35.4739C37.8852 35.3389 38.0889 35.0296 38.0889 34.6874V22.9188C39.4687 23.135 40.8418 23.4252 42.2057 23.7893V56.0354C38.8584 55.1828 35.4602 54.7555 32.0423 54.7555ZM66.5294 56.1582L60.2447 55.2172C54.7593 54.3958 49.2726 54.6713 43.9179 56.0354V23.7893C49.2176 22.3749 54.6552 22.0746 60.0858 22.8968L66.5294 23.8725V56.1582Z" fill="#7C8081"/>
<path d="M53.2805 60.491H47.1756C46.7909 60.491 46.4533 60.7478 46.3505 61.1187C45.9433 62.5902 44.5908 63.6179 43.0617 63.6179C41.5328 63.6179 40.1803 62.5901 39.7729 61.1185C39.6702 60.7477 39.3327 60.4909 38.9478 60.4909H16.1033C15.7842 60.4909 15.5245 60.2313 15.5245 59.9121V33.8885C15.5245 33.4157 15.1414 33.0325 14.6685 33.0325C14.1957 33.0325 13.8125 33.4157 13.8125 33.8885V59.9121C13.8125 61.1753 14.8402 62.2029 16.1033 62.2029H38.3415C39.134 64.0726 40.9899 65.3298 43.0616 65.3298C45.1334 65.3298 46.9894 64.0726 47.7817 62.2029H53.2804C53.7533 62.2029 54.1364 61.8197 54.1364 61.3469C54.1364 60.8742 53.7533 60.491 53.2805 60.491Z" fill="#7C8081"/>
</g>
<defs>
<clipPath id="clip0">
<rect width="58.4375" height="58.4375" fill="white" transform="translate(13.8125 13.8125)"/>
</clipPath>
</defs>
</svg>
