<svg width="85" height="85" viewBox="0 0 85 85" fill="none" xmlns="http://www.w3.org/2000/svg">
<circle cx="42.5" cy="42.5" r="42.5" fill="#C0F1F8"/>
<path d="M81.4516 25.4738C79.1777 20.2788 75.9339 15.6526 71.8106 11.7245C71.2781 11.2173 70.4359 11.2376 69.9288 11.7702C69.4218 12.3024 69.4422 13.1448 69.9744 13.6516C77.9472 21.247 82.3381 31.4923 82.3381 42.5C82.3381 64.4669 64.4669 82.3383 42.4998 82.3383C20.5328 82.3383 2.66173 64.4669 2.66173 42.5C2.66173 20.5331 20.5331 2.66173 42.5 2.66173C50.5245 2.66173 58.2599 5.03675 64.8693 9.52963C65.4771 9.94284 66.3048 9.78496 66.7182 9.17734C67.1314 8.56939 66.9735 7.74164 66.3657 7.32843C59.3131 2.53423 51.0606 0 42.5 0C31.1479 0 20.4752 4.42066 12.448 12.448C4.42083 20.4752 0 31.1479 0 42.5C0 53.8521 4.42083 64.5248 12.448 72.552C20.4752 80.5793 31.1479 85 42.5 85C53.8521 85 64.5248 80.5793 72.552 72.552C80.5792 64.5248 85 53.8521 85 42.5C85 36.5812 83.806 30.8527 81.4516 25.4738Z" fill="black"/>
<g clip-path="url(#clip0)">
<path d="M71.1357 26.969V59.5435C71.1357 60.3432 70.487 60.992 69.6872 60.992H46.6842C46.1806 62.8127 44.512 64.1494 42.5311 64.1494C41.9803 64.1494 41.4525 64.0457 40.9685 63.8567C39.7113 63.3681 38.7411 62.3056 38.3769 60.992H15.3128C14.513 60.992 13.8643 60.3432 13.8643 59.5435V26.969C13.8643 26.1693 14.513 25.5205 15.3128 25.5205H69.6872C70.487 25.5205 71.1357 26.1693 71.1357 26.969Z" fill="#52DEFF"/>
<path d="M43.559 60.9918H46.6841C46.1806 62.8125 44.512 64.1492 42.5311 64.1492C41.9803 64.1492 41.4525 64.0455 40.9685 63.8565C42.2257 63.368 43.196 62.3054 43.559 60.9918Z" fill="#55BAFF"/>
<path d="M71.1357 26.969V59.5435C71.1357 60.3432 70.4869 60.992 69.6872 60.992H66.562C67.3617 60.992 68.0105 60.3432 68.0105 59.5435V26.969C68.0105 26.1693 67.3617 25.5205 66.562 25.5205H69.6872C70.4869 25.5205 71.1357 26.1693 71.1357 26.969Z" fill="#55BAFF"/>
<path d="M67.0888 22.4137V56.757L59.7518 55.6577C53.9981 54.7969 48.1281 55.1714 42.5312 56.757C36.9342 55.1714 31.063 54.7969 25.3105 55.6577L17.9724 56.757V22.4137L25.2137 21.3178C27.2442 21.0101 29.2907 20.8569 31.3338 20.8569C33.1108 20.8557 34.8842 20.971 36.6461 21.2014C38.5464 21.4492 40.4304 21.8306 42.2869 22.3457L42.5312 22.4137L42.7743 22.3457C48.3298 20.805 54.1479 20.4547 59.8486 21.3178L67.0888 22.4137Z" fill="#EEF6FF"/>
<path d="M67.0886 22.4137V56.757L64.3552 56.3479L59.7516 55.6577C53.998 54.7969 48.1279 55.1714 42.531 56.757V22.4137L42.7742 22.3457C48.3296 20.805 54.1478 20.4547 59.8484 21.3178L64.3552 22L67.0886 22.4137Z" fill="#DAE6EF"/>
<path d="M67.0886 22.4137V56.757L64.3552 56.3479V22L67.0886 22.4137Z" fill="#C5D3DD"/>
<path d="M36.646 21.2014V34.0754L34.1109 31.6704L31.3337 33.5949V20.8568C32.2614 20.8557 33.1867 20.8868 34.1109 20.9502C34.9579 21.0078 35.8037 21.0908 36.646 21.2014Z" fill="#FF455C"/>
<path d="M36.6462 21.2014V34.0754L34.1111 31.6705V20.9502C34.9581 21.0078 35.8039 21.0908 36.6462 21.2014Z" fill="#E51C5F"/>
<path d="M37.8546 37.8547C34.3459 36.8814 30.7414 36.6641 27.1412 37.2093L22.7508 37.8741C22.2789 37.9455 21.9543 38.386 22.0257 38.8579C22.0906 39.286 22.459 39.5929 22.879 39.5929C22.9221 39.5929 22.9657 39.5897 23.0096 39.5831L27.4 38.9183C30.7578 38.4097 34.1198 38.6124 37.3925 39.5203C37.8522 39.6475 38.3287 39.3786 38.4562 38.9185C38.5839 38.4586 38.3145 37.9824 37.8546 37.8547Z" fill="black"/>
<path d="M22.8789 44.9865C22.922 44.9865 22.9656 44.9833 23.0095 44.9767L27.3999 44.3119C30.1433 43.8966 32.9143 43.959 35.6363 44.4972C36.1045 44.5898 36.5592 44.2853 36.6518 43.8171C36.7445 43.3489 36.4399 42.8942 35.9717 42.8015C33.0537 42.2243 30.0827 42.1575 27.1412 42.6028L22.7508 43.2676C22.2789 43.339 21.9543 43.7795 22.0257 44.2514C22.0905 44.6796 22.4589 44.9865 22.8789 44.9865Z" fill="black"/>
<path d="M37.8176 48.6419C34.3089 47.6685 30.7045 47.4515 27.1043 47.9964L22.7139 48.6612C22.242 48.7327 21.9174 49.1732 21.9889 49.6451C22.0537 50.0732 22.4221 50.38 22.8422 50.38C22.8853 50.38 22.9288 50.3768 22.9727 50.3703L27.3632 49.7055C30.7211 49.1969 34.0828 49.3995 37.3555 50.3074C37.8151 50.4348 38.2916 50.1656 38.4193 49.7057C38.5469 49.2458 38.2775 48.7695 37.8176 48.6419Z" fill="black"/>
<path d="M62.366 27.0558L57.9755 26.391C54.3755 25.8459 50.7711 26.063 47.2623 27.0364C46.8024 27.164 46.533 27.6404 46.6606 28.1003C46.788 28.5602 47.2639 28.8298 47.7243 28.702C50.9968 27.7942 54.3588 27.5916 57.7166 28.1L62.107 28.7648C62.1509 28.7715 62.1945 28.7746 62.2376 28.7746C62.6577 28.7746 63.0263 28.4676 63.0909 28.0397C63.1626 27.5678 62.8379 27.1272 62.366 27.0558Z" fill="black"/>
<path d="M47.4931 34.1267C47.5695 34.1267 47.6473 34.1164 47.7247 34.095C50.9972 33.1872 54.3592 32.9846 57.717 33.4929L58.9884 33.6853C59.46 33.7566 59.9009 33.4321 59.9722 32.9601C60.0437 32.4883 59.7191 32.0477 59.2472 31.9763L57.9758 31.7838C54.3758 31.2388 50.7713 31.4559 47.2626 32.4294C46.8027 32.5569 46.5332 33.0333 46.6608 33.4932C46.7669 33.8758 47.1145 34.1267 47.4931 34.1267Z" fill="black"/>
<path d="M57.9756 42.5918C54.3756 42.0468 50.7712 42.2637 47.2624 43.2372C46.8025 43.3648 46.5331 43.8412 46.6605 44.3011C46.7668 44.6838 47.1143 44.9345 47.493 44.9345C47.5694 44.9345 47.6472 44.9243 47.7245 44.9028C50.997 43.995 54.359 43.7923 57.7168 44.3008L58.9882 44.4933C59.4598 44.5643 59.9007 44.2401 59.972 43.7681C60.0435 43.2962 59.7189 42.8557 59.247 42.7842L57.9756 42.5918Z" fill="black"/>
<path d="M47.6507 39.4877C50.923 38.5798 54.2851 38.3773 57.643 38.8857L62.0334 39.5505C62.0773 39.5572 62.1209 39.5603 62.164 39.5603C62.5841 39.5603 62.9526 39.2533 63.0173 38.8253C63.0887 38.3535 62.7641 37.9129 62.2922 37.8415L57.9018 37.1767C54.3017 36.6316 50.6972 36.8486 47.1886 37.8221C46.7287 37.9497 46.4593 38.4261 46.5868 38.886C46.7144 39.3459 47.1902 39.6155 47.6507 39.4877Z" fill="black"/>
<path d="M62.3292 48.6286L57.9388 47.9638C54.3387 47.4187 50.7342 47.6357 47.2255 48.6092C46.7656 48.7368 46.4961 49.2132 46.6237 49.6731C46.7511 50.133 47.2269 50.4026 47.6874 50.2748C50.96 49.3669 54.3222 49.1644 57.6799 49.6728L62.0703 50.3376C62.1142 50.3443 62.1577 50.3474 62.2008 50.3474C62.621 50.3474 62.9895 50.0404 63.0541 49.6124C63.1257 49.1406 62.8011 48.7 62.3292 48.6286Z" fill="black"/>
<path d="M69.6871 24.6562H67.9529V22.4137C67.9529 21.9864 67.6405 21.6232 67.218 21.5592L59.9775 20.4628C54.1187 19.5757 48.2532 19.929 42.5437 21.5132L42.5308 21.5167L42.5181 21.5132C36.8083 19.9292 30.9428 19.5757 25.0841 20.4628L17.8436 21.5592C17.4211 21.6231 17.1088 21.9863 17.1088 22.4137V24.6562H15.3129C14.0376 24.6562 13 25.6936 13 26.9691V29.2716C13 29.7489 13.3868 30.1358 13.8643 30.1358C14.3417 30.1358 14.7285 29.7489 14.7285 29.2716V26.9691C14.7285 26.6469 14.9907 26.3847 15.3129 26.3847H17.1087V56.7568C17.1087 57.0084 17.2183 57.2475 17.4089 57.4117C17.5993 57.5758 17.8519 57.6487 18.1008 57.6116L25.4383 56.513C31.1076 55.6639 36.7791 56.0257 42.2952 57.5884C42.4492 57.632 42.6124 57.632 42.7663 57.5884C48.282 56.0259 53.9536 55.664 59.6231 56.513L66.9606 57.6116C67.0032 57.6179 67.046 57.6212 67.0885 57.6212C67.2941 57.6212 67.4946 57.5478 67.6526 57.4118C67.8432 57.2476 67.9527 57.0085 67.9527 56.7569V26.3847H69.687C70.0092 26.3847 70.2714 26.6469 70.2714 26.9691V59.5435C70.2714 59.8657 70.0092 60.1279 69.687 60.1279H56.8657C56.3883 60.1279 56.0014 60.5148 56.0014 60.9921C56.0014 61.4694 56.3883 61.8564 56.8657 61.8564H69.6871C70.9624 61.8564 72 60.8188 72 59.5435V26.9691C72 25.6936 70.9624 24.6562 69.6871 24.6562ZM32.1985 21.7241C33.396 21.7491 34.5908 21.8283 35.7816 21.9618V32.0647L34.7052 31.0435C34.4082 30.7619 33.9543 30.727 33.618 30.9602L32.1985 31.9442V21.7241ZM31.4051 54.3372C29.3354 54.3372 27.2588 54.4924 25.1825 54.8033L18.8373 55.7534V23.1569L25.3429 22.1719C27.0527 21.9129 28.7634 21.7643 30.4701 21.7255V26.1383C29.3322 26.1583 28.1907 26.2536 27.0674 26.4237L22.6769 27.0884C22.205 27.1599 21.8804 27.6004 21.9519 28.0723C22.0167 28.5004 22.3851 28.8073 22.8052 28.8073C22.8483 28.8073 22.8918 28.8041 22.9357 28.7975L27.3262 28.1327C28.3642 27.9755 29.4179 27.8864 30.4701 27.8669V31.5318C29.3322 31.5516 28.1907 31.6471 27.0674 31.8172L22.6769 32.482C22.205 32.5534 21.8804 32.994 21.9519 33.4659C22.0167 33.894 22.3851 34.2008 22.8052 34.2008C22.8483 34.2008 22.8918 34.1976 22.9357 34.191L27.3262 33.5262C28.3641 33.3691 29.4179 33.2798 30.4701 33.2603V33.5948C30.4701 33.9164 30.6486 34.2113 30.9335 34.3605C31.2186 34.5096 31.5625 34.4882 31.8266 34.3052L34.0253 32.7811L36.051 34.703C36.2149 34.8585 36.4288 34.9403 36.6461 34.9403C36.7611 34.9403 36.8771 34.9173 36.9871 34.8701C37.3044 34.7337 37.5101 34.4215 37.5101 34.076V22.194C38.9032 22.4123 40.2895 22.7053 41.6665 23.0728V55.6293C38.2869 54.7685 34.8558 54.3372 31.4051 54.3372ZM66.2243 55.7534L59.8792 54.8033C54.3414 53.9742 48.8019 54.2523 43.3951 55.6295V23.0728C48.7458 21.6448 54.2357 21.3415 59.7187 22.1717L66.2243 23.1568V55.7534Z" fill="black"/>
<path d="M52.8479 60.1278H46.6844C46.2959 60.1278 45.9552 60.387 45.8514 60.7614C45.4401 62.2472 44.0746 63.2848 42.5308 63.2848C40.9871 63.2848 39.6216 62.2472 39.2103 60.7614C39.1066 60.3869 38.7658 60.1278 38.3773 60.1278H15.3129C14.9907 60.1278 14.7285 59.8656 14.7285 59.5434V33.2692C14.7285 32.7919 14.3417 32.4049 13.8643 32.4049C13.3868 32.4049 13 32.7919 13 33.2692V59.5433C13 60.8186 14.0376 61.8562 15.3129 61.8562H37.7651C38.5652 63.7438 40.439 65.0132 42.5307 65.0132C44.6223 65.0132 46.4962 63.7438 47.2963 61.8562H52.8478C53.3252 61.8562 53.7121 61.4692 53.7121 60.9919C53.7121 60.5146 53.3252 60.1278 52.8479 60.1278Z" fill="black"/>
</g>
<defs>
<clipPath id="clip0">
<rect width="59" height="59" fill="white" transform="translate(13 13)"/>
</clipPath>
</defs>
</svg>
