<svg width="47" height="47" viewBox="0 0 47 47" fill="none" xmlns="http://www.w3.org/2000/svg">
<path d="M23.5001 46.2579C36.069 46.2579 46.258 36.0688 46.258 23.5C46.258 10.9311 36.069 0.742065 23.5001 0.742065C10.9313 0.742065 0.742188 10.9311 0.742188 23.5C0.742188 36.0688 10.9313 46.2579 23.5001 46.2579Z" fill="#EF72AD"/>
<path d="M23.4999 0.742065C22.4938 0.742065 21.5032 0.808159 20.5315 0.934747C31.6978 2.38936 40.321 11.9372 40.321 23.5C40.321 35.0627 31.6977 44.6106 20.5315 46.0652C21.5032 46.1918 22.4938 46.2579 23.4999 46.2579C36.0688 46.2579 46.2578 36.0688 46.2578 23.5C46.2578 10.9312 36.0688 0.742065 23.4999 0.742065Z" fill="#EE539E"/>
<path d="M31.9308 8.90527H15.0686C11.67 8.90527 8.90503 11.6703 8.90503 15.0689V31.9312C8.90503 35.3297 11.67 38.0948 15.0686 38.0948H31.931C35.3295 38.0948 38.0945 35.3297 38.0945 31.9311V15.0689C38.0944 11.6702 35.3295 8.90527 31.9308 8.90527ZM36.6102 31.9311C36.6102 34.5113 34.511 36.6105 31.9308 36.6105H15.0686C12.4884 36.6105 10.3892 34.5113 10.3892 31.9311V15.0689C10.3892 12.4887 12.4884 10.3894 15.0686 10.3894H31.931C34.5111 10.3894 36.6103 12.4887 36.6103 15.0689V31.9311H36.6102Z" fill="white"/>
<path d="M31.416 16.5736C32.5089 16.5736 33.3949 15.6876 33.3949 14.5947C33.3949 13.5017 32.5089 12.6157 31.416 12.6157C30.323 12.6157 29.437 13.5017 29.437 14.5947C29.437 15.6876 30.323 16.5736 31.416 16.5736Z" fill="white"/>
<path d="M40.117 6.88302C35.6784 2.44437 29.777 0 23.5 0C17.223 0 11.3216 2.44437 6.88302 6.88302C2.44446 11.3217 0 17.2229 0 23.5C0 29.7771 2.44437 35.6784 6.88302 40.117C11.3217 44.5555 17.2229 47 23.5 47C29.7771 47 35.6784 44.5556 40.117 40.117C44.5555 35.6783 47 29.777 47 23.5C47 17.223 44.5556 11.3216 40.117 6.88302ZM23.5 45.5158C11.3604 45.5158 1.48417 35.6396 1.48417 23.5C1.48417 11.3604 11.3604 1.48417 23.5 1.48417C35.6396 1.48417 45.5158 11.3604 45.5158 23.5C45.5158 35.6396 35.6396 45.5158 23.5 45.5158Z" fill="black"/>
<path d="M31.9308 8.90527H15.0686C11.67 8.90527 8.90503 11.6703 8.90503 15.0689V31.9312C8.90503 35.3297 11.67 38.0948 15.0686 38.0948H31.931C35.3295 38.0948 38.0945 35.3297 38.0945 31.9311V15.0689C38.0944 11.6702 35.3295 8.90527 31.9308 8.90527ZM36.6102 31.9311C36.6102 34.5113 34.511 36.6105 31.9308 36.6105H15.0686C12.4884 36.6105 10.3892 34.5113 10.3892 31.9311V15.0689C10.3892 12.4887 12.4884 10.3894 15.0686 10.3894H31.931C34.5111 10.3894 36.6103 12.4887 36.6103 15.0689V31.9311H36.6102Z" fill="white"/>
<path d="M26.7531 28.7565C25.79 29.3549 24.6517 29.6966 23.4339 29.6839C19.9956 29.6476 17.2214 26.7607 17.3183 23.3236C17.4157 19.8646 20.3673 17.107 23.8962 17.3282C26.937 17.5187 29.4122 19.9435 29.6628 22.98C29.7647 24.217 29.4987 25.3857 28.9642 26.3909C28.8111 26.6788 28.8583 27.0318 29.0888 27.2623C29.0926 27.2661 29.0965 27.27 29.1002 27.2737C29.4466 27.6201 30.0323 27.5387 30.2637 27.107C30.9048 25.9114 31.2385 24.5278 31.156 23.0611C30.9365 19.1567 27.7593 16.0157 23.8528 15.8395C19.3449 15.6363 15.6338 19.3491 15.8397 23.8576C16.0183 27.7645 19.1618 30.9401 23.0667 31.1564C24.7145 31.2477 26.2577 30.8142 27.5467 30.0095C27.9482 29.7588 28.0136 29.2004 27.6789 28.8658C27.6754 28.8622 27.6719 28.8587 27.6684 28.8552C27.4244 28.6112 27.0462 28.5744 26.7531 28.7565Z" fill="white"/>
<path d="M31.416 16.5736C32.5089 16.5736 33.3949 15.6876 33.3949 14.5947C33.3949 13.5017 32.5089 12.6157 31.416 12.6157C30.323 12.6157 29.437 13.5017 29.437 14.5947C29.437 15.6876 30.323 16.5736 31.416 16.5736Z" fill="white"/>
</svg>
