<svg width="47" height="47" viewBox="0 0 47 47" fill="none" xmlns="http://www.w3.org/2000/svg">
<path d="M40.117 6.88302C35.6784 2.44437 29.777 0 23.5 0C17.223 0 11.3216 2.44437 6.88302 6.88302C2.44437 11.3216 0 17.223 0 23.5C0 29.777 2.44437 35.6784 6.88302 40.117C11.3216 44.5556 17.223 47 23.5 47C29.777 47 35.6784 44.5556 40.117 40.117C44.5555 35.6783 47 29.777 47 23.5C47 17.223 44.5556 11.3216 40.117 6.88302ZM23.5 45.5158C11.3604 45.5158 1.48417 35.6396 1.48417 23.5C1.48417 11.3604 11.3604 1.48417 23.5 1.48417C35.6396 1.48417 45.5158 11.3604 45.5158 23.5C45.5158 35.6396 35.6396 45.5158 23.5 45.5158Z" fill="#7C8081"/>
<path d="M31.9311 8.90527H15.0689C11.6702 8.90527 8.90527 11.6703 8.90527 15.0689V31.9312C8.90527 35.3297 11.6703 38.0948 15.0689 38.0948H31.9312C35.3297 38.0948 38.0948 35.3297 38.0948 31.9311V15.0689C38.0947 11.6702 35.3297 8.90527 31.9311 8.90527ZM36.6105 31.9311C36.6105 34.5113 34.5113 36.6105 31.9311 36.6105H15.0689C12.4887 36.6105 10.3894 34.5113 10.3894 31.9311V15.0689C10.3894 12.4887 12.4887 10.3894 15.0689 10.3894H31.9312C34.5114 10.3894 36.6106 12.4887 36.6106 15.0689V31.9311H36.6105Z" fill="#7C8081"/>
<path d="M31.156 23.0612C30.9365 19.1568 27.7594 16.0158 23.8528 15.8396C19.3449 15.6364 15.6338 19.3492 15.8397 23.8577C16.0183 27.7646 19.1618 30.9402 23.0667 31.1565C24.7145 31.2478 26.2577 30.8144 27.5467 30.0096C27.9482 29.7589 28.0136 29.2005 27.6789 28.8659C27.6754 28.8623 27.6719 28.8588 27.6684 28.8553C27.4245 28.6113 27.0462 28.5745 26.7531 28.7567C25.79 29.3551 24.6517 29.6967 23.4339 29.684C19.9956 29.6478 17.2214 26.7608 17.3183 23.3237C17.4157 19.8647 20.3673 17.1072 23.8962 17.3283C26.937 17.5189 29.4123 19.9436 29.6628 22.9802C29.7648 24.2171 29.4987 25.3858 28.9642 26.391C28.8112 26.6789 28.8583 27.032 29.0889 27.2625C29.0926 27.2662 29.0965 27.2701 29.1002 27.2739C29.4466 27.6202 30.0323 27.5388 30.2638 27.1072C30.9047 25.9114 31.2386 24.5278 31.156 23.0612Z" fill="#7C8081"/>
<path d="M31.416 16.5736C32.5089 16.5736 33.3949 15.6876 33.3949 14.5947C33.3949 13.5017 32.5089 12.6157 31.416 12.6157C30.323 12.6157 29.437 13.5017 29.437 14.5947C29.437 15.6876 30.323 16.5736 31.416 16.5736Z" fill="#7C8081"/>
</svg>
