<svg width="47" height="47" viewBox="0 0 47 47" fill="none" xmlns="http://www.w3.org/2000/svg">
<path d="M45.0379 14.0855C43.7806 11.213 41.987 8.65498 39.707 6.48297C39.4126 6.20253 38.9469 6.21373 38.6665 6.50821C38.3861 6.80252 38.3974 7.26829 38.6917 7.54855C43.1002 11.7483 45.5281 17.4134 45.5281 23.5C45.5281 35.6464 35.6464 45.5282 23.4999 45.5282C11.3534 45.5282 1.47178 35.6464 1.47178 23.5C1.47178 11.3536 11.3536 1.47178 23.5 1.47178C27.9371 1.47178 32.2143 2.78503 35.8689 5.26932C36.205 5.49781 36.6627 5.41051 36.8912 5.07453C37.1197 4.73837 37.0324 4.28067 36.6964 4.05219C32.7966 1.40128 28.2335 0 23.5 0C17.2229 0 11.3216 2.44437 6.88302 6.88302C2.44446 11.3216 0 17.2229 0 23.5C0 29.7771 2.44446 35.6784 6.88302 40.117C11.3216 44.5556 17.2229 47 23.5 47C29.7771 47 35.6784 44.5556 40.117 40.117C44.5555 35.6784 47 29.7771 47 23.5C47 20.2273 46.3398 17.0597 45.0379 14.0855Z" fill="#7C8081"/>
<path d="M34.179 9.96477L20.0261 16.5531C19.6576 16.7246 19.498 17.1625 19.6696 17.5309C19.8412 17.8994 20.2789 18.0592 20.6472 17.8876L29.3777 13.8234L25.1332 17.2594L15.393 25.1444L10.0654 22.8135L17.5309 19.3382C17.8994 19.1666 18.059 18.7289 17.8874 18.3604C17.716 17.9919 17.278 17.8321 16.9098 18.0038L8.8739 21.7447C8.44668 21.9435 8.17698 22.3785 8.18781 22.8495C8.19837 23.3103 8.47688 23.725 8.89906 23.9097L14.8477 26.5122L16.5899 36.9653C16.6971 37.6117 17.5723 37.7957 17.9313 37.2476L22.8733 29.7046L32.2192 34.066C32.968 34.4158 33.8591 33.8813 33.9074 33.0594L35.2241 10.6748C35.2255 10.6541 35.2254 10.6328 35.2249 10.6119C35.2102 10.091 34.6507 9.74666 34.179 9.96477ZM17.4431 33.1324L16.3044 26.3001L27.9047 16.9094L19.0263 26.8639C18.9464 26.9535 18.8871 27.0662 18.8596 27.1833L17.4431 33.1324ZM19.0064 32.9212L20.0823 28.4023L21.5257 29.0759L19.0064 32.9212ZM22.3407 27.832L20.7832 27.1053L28.4454 18.5144L27.3371 20.206L22.3407 27.832ZM32.4628 32.5557L23.6883 28.4609L33.5929 13.3434L32.4628 32.5557Z" fill="#7C8081"/>
</svg>
