<svg width="47" height="47" viewBox="0 0 47 47" fill="none" xmlns="http://www.w3.org/2000/svg">
<path d="M23.4999 46.2641C36.0722 46.2641 46.264 36.0723 46.264 23.5C46.264 10.9278 36.0722 0.735962 23.4999 0.735962C10.9277 0.735962 0.73584 10.9278 0.73584 23.5C0.73584 36.0723 10.9277 46.2641 23.4999 46.2641Z" fill="#47B0D3"/>
<path d="M26.6398 45.479C14.0676 45.479 3.87575 35.2872 3.87575 22.715C3.87575 12.6181 10.4501 4.05791 19.551 1.078C8.86115 2.94781 0.73584 12.2746 0.73584 23.4999C0.73584 36.0722 10.9277 46.264 23.4999 46.264C25.9752 46.264 28.3576 45.8674 30.5887 45.1369C29.3061 45.3612 27.9867 45.479 26.6398 45.479Z" fill="#3298BA"/>
<path d="M17.3158 36.8445L15.5081 25.9979L34.4895 10.6318L17.3158 36.8445Z" fill="#B2B2B2"/>
<path d="M19.5755 27.3537L17.3159 36.8445L34.4897 10.6318L19.5755 27.3537Z" fill="#CCCCCC"/>
<path d="M19.5754 27.3537L34.4896 10.6318L33.1728 33.0164C33.154 33.3351 32.8197 33.5344 32.5305 33.3994L19.5754 27.3537Z" fill="#E5E5E5"/>
<path d="M34.4895 10.6318L9.18455 22.4118C8.83177 22.576 8.83764 23.0796 9.19418 23.2355L15.5081 25.9977L34.4895 10.6318Z" fill="#E5E5E5"/>
<path d="M45.0379 14.0855C43.7806 11.213 41.987 8.65498 39.707 6.48297C39.4126 6.20253 38.9469 6.21373 38.6665 6.50821C38.3861 6.80252 38.3974 7.26829 38.6917 7.54855C43.1002 11.7483 45.5281 17.4134 45.5281 23.5C45.5281 35.6464 35.6464 45.5282 23.4999 45.5282C11.3534 45.5282 1.47178 35.6464 1.47178 23.5C1.47178 11.3536 11.3536 1.47178 23.5 1.47178C27.9371 1.47178 32.2143 2.78503 35.8689 5.26932C36.205 5.49781 36.6627 5.41051 36.8912 5.07453C37.1197 4.73837 37.0324 4.28067 36.6964 4.05219C32.7966 1.40128 28.2334 0 23.5 0C17.2229 0 11.3216 2.44437 6.88302 6.88302C2.44446 11.3216 0 17.2229 0 23.5C0 29.7771 2.44446 35.6784 6.88302 40.117C11.3216 44.5556 17.2229 47 23.5 47C29.7771 47 35.6784 44.5556 40.117 40.117C44.5555 35.6784 47 29.7771 47 23.5C47 20.2273 46.3399 17.0597 45.0379 14.0855Z" fill="black"/>
<path d="M35.2251 10.612C35.2105 10.091 34.6509 9.74666 34.1792 9.96477L20.0264 16.5531C19.6579 16.7246 19.4983 17.1625 19.6698 17.5309C19.8413 17.8994 20.2792 18.0592 20.6475 17.8876L29.3779 13.8234L25.1335 17.2594L15.3932 25.1444L10.0657 22.8135L17.5311 19.3382C17.8996 19.1667 18.0593 18.7289 17.8877 18.3604C17.7161 17.9919 17.2782 17.8321 16.91 18.0038L8.87415 21.7447C8.44693 21.9435 8.17723 22.3785 8.18806 22.8495C8.19862 23.3103 8.47713 23.725 8.8993 23.9097L14.8479 26.5122L16.5901 36.9654C16.6974 37.6118 17.5725 37.7958 17.9316 37.2477L22.8735 29.7047L32.2195 34.0661C32.9683 34.4159 33.8593 33.8814 33.9076 33.0595L35.2243 10.6749C35.2257 10.6543 35.2256 10.633 35.2251 10.612ZM22.3409 27.832L20.7834 27.1053L28.4456 18.5144L27.3373 20.206L22.3409 27.832ZM20.0825 28.4023L21.526 29.0759L19.0066 32.9212L20.0825 28.4023ZM27.9049 16.9093L19.0265 26.8638C18.9467 26.9534 18.8874 27.0662 18.8598 27.1832L17.4433 33.1323L16.3046 26.3L27.9049 16.9093ZM32.463 32.5557L23.6885 28.4609L33.5931 13.3434L32.463 32.5557Z" fill="black"/>
</svg>
