<svg width="180" height="180" viewBox="0 0 180 180" fill="none" xmlns="http://www.w3.org/2000/svg">
<path d="M90 0C40.372 0 0 40.372 0 90C0 139.628 40.372 180 90 180C139.628 180 180 139.628 180 90C180 40.372 139.628 0 90 0Z" fill="#CFCFCF"/>
<path d="M97.4991 135C97.4991 139.142 94.1414 142.5 89.9995 142.5C85.8577 142.5 82.5 139.142 82.5 135C82.5 130.858 85.8577 127.5 89.9995 127.5C94.1414 127.5 97.4991 130.858 97.4991 135Z" fill="#3C3C3C"/>
<path d="M90 180C40.372 180 0 139.628 0 90C0 40.372 40.372 0 90 0C139.628 0 180 40.372 180 90C180 139.628 139.628 180 90 180ZM90 11.25C46.5752 11.25 11.25 46.5752 11.25 90C11.25 133.425 46.5752 168.75 90 168.75C133.425 168.75 168.75 133.425 168.75 90C168.75 46.5752 133.425 11.25 90 11.25Z" fill="#3C3C3C"/>
<path d="M90.0005 110.625C86.8954 110.625 84.3755 108.105 84.3755 105V97.4254C84.3755 90.2856 88.9059 83.8806 95.6406 81.5103C104.603 78.3531 110.626 68.8129 110.626 61.875C110.626 50.4973 101.378 41.2495 90.0005 41.2495C78.6227 41.2495 69.375 50.4973 69.375 61.875C69.375 64.98 66.855 67.5 63.75 67.5C60.645 67.5 58.125 64.98 58.125 61.875C58.125 44.2955 72.421 29.9995 90.0005 29.9995C107.58 29.9995 121.876 44.2955 121.876 61.875C121.876 74.3925 111.998 87.675 99.3828 92.1149C97.1333 92.91 95.6255 95.0468 95.6255 97.4254V105C95.6255 108.105 93.1055 110.625 90.0005 110.625V110.625Z" fill="#3C3C3C"/>
</svg>
