<svg width="180" height="180" viewBox="0 0 180 180" fill="none" xmlns="http://www.w3.org/2000/svg">
<path d="M90 0C40.372 0 0 40.372 0 90C0 139.628 40.372 180 90 180C139.628 180 180 139.628 180 90C180 40.372 139.628 0 90 0Z" fill="#F44336"/>
<path d="M90 180C40.372 180 0 139.628 0 90C0 40.372 40.372 0 90 0C139.628 0 180 40.372 180 90C180 139.628 139.628 180 90 180ZM90 11.25C46.5752 11.25 11.25 46.5752 11.25 90C11.25 133.425 46.5752 168.75 90 168.75C133.425 168.75 168.75 133.425 168.75 90C168.75 46.5752 133.425 11.25 90 11.25Z" fill="black"/>
<path d="M62.5446 123C61.1242 123 59.7039 122.46 58.6248 121.373C56.4584 119.206 56.4584 115.694 58.6248 113.528L113.529 58.6257C115.697 56.4581 119.209 56.4581 121.375 58.6257C123.542 60.792 123.542 64.3041 121.375 66.4704L66.4698 121.373C65.3758 122.46 63.9568 123 62.5446 123V123Z" fill="black"/>
<path d="M117.448 123C116.029 123 114.608 122.46 113.529 121.373L58.6258 66.4704C56.4581 64.3041 56.4581 60.792 58.6258 58.6257C60.7921 56.4581 64.3043 56.4581 66.4707 58.6257L121.374 113.528C123.542 115.694 123.542 119.206 121.374 121.373C120.288 122.46 118.868 123 117.448 123Z" fill="black"/>
</svg>
